#!OML:ASF F:\VICON\USERDATA\INSTALL\rory3\rory3.ASF
:FULLY-SPECIFIED
:DEGREES
3530
root -4.40523 18.7604 0.371106 -345.277 70.9549 364.743
lowerback 8.47616 -3.13155 -2.26024
upperback 4.45541 -4.19964 -4.03111
thorax -0.266742 -2.02289 -2.53489
lowerneck -5.1535 10.9074 -3.9389
upperneck 31.6004 16.7227 2.05129
head 10.4936 7.65151 3.05207
rclavicle 7.91163e-014 2.06736e-014
rhumerus -13.2351 36.3043 -81.8864
rradius 128.589
rwrist -8.21317
rhand -44.5782 -0.845365
rfingers 7.12502
rthumb -17.3777 -30.0885
lclavicle 7.91163e-014 2.06736e-014
lhumerus 1.02596 -28.2691 97.4618
lradius 39.1312
lwrist -2.77077
lhand -30.7479 13.419
lfingers 7.12502
lthumb -4.03967 43.3605
rfemur -26.6252 16.1901 13.8007
rtibia 30.4884
rfoot -12.9777 -15.1123
rtoes -6.37276
lfemur -10.2058 -4.01984 -14.7487
ltibia 26.6478
lfoot -15.5801 6.82936
ltoes -9.10542
3531
root -4.38498 18.7601 0.400847 -344.633 71.2171 365.389
lowerback 8.40733 -3.25846 -2.59041
upperback 4.48947 -4.38368 -3.9675
thorax -0.168309 -2.11977 -2.27542
lowerneck -4.87484 11.0677 -3.5207
upperneck 31.5256 16.9585 1.73971
head 10.4804 7.77438 2.88379
rclavicle -4.81059e-014 -4.45278e-014
rhumerus -13.2908 36.4689 -82.5137
rradius 128.174
rwrist -8.70659
rhand -44.8279 -0.56435
rfingers 7.12502
rthumb -17.6181 -29.7861
lclavicle -4.81059e-014 -4.45278e-014
lhumerus 0.958157 -27.3182 97.1269
lradius 38.7087
lwrist -3.46721
lhand -30.4305 12.8346
lfingers 7.12502
lthumb -3.73319 42.7816
rfemur -26.5369 15.9784 13.7508
rtibia 30.5483
rfoot -13.0926 -15.2539
rtoes -6.5696
lfemur -10.5273 -3.91404 -14.8288
ltibia 27.1123
lfoot -15.1197 6.72019
ltoes -10.9322
3532
root -4.36494 18.7583 0.431288 -344.268 71.5805 365.787
lowerback 8.60481 -3.22295 -2.38255
upperback 4.46403 -4.33215 -3.9618
thorax -0.317621 -2.09014 -2.37686
lowerneck -4.91711 11.0618 -3.54701
upperneck 31.6419 16.926 1.92016
head 10.5104 7.77576 2.95479
rclavicle -2.62396e-014 2.38542e-014
rhumerus -13.762 36.0118 -83.1995
rradius 127.643
rwrist -9.02084
rhand -45.0681 0.0988206
rfingers 7.12502
rthumb -17.8492 -29.102
lclavicle -2.62396e-014 2.38542e-014
lhumerus 0.738002 -27.0649 97.0952
lradius 38.1845
lwrist -3.81919
lhand -30.7667 13.2822
lfingers 7.12502
lthumb -4.05781 43.2233
rfemur -26.373 15.9599 13.7853
rtibia 30.6279
rfoot -13.3791 -15.5603
rtoes -6.31626
lfemur -10.8407 -3.86745 -14.7804
ltibia 27.6507
lfoot -14.6994 6.50582
ltoes -12.4091
3533
root -4.34926 18.7562 0.461427 -343.715 71.9004 366.417
lowerback 8.82474 -3.11856 -2.31828
upperback 4.51369 -4.19297 -3.90905
thorax -0.384219 -2.0185 -2.36007
lowerneck -5.14144 10.9818 -3.7196
upperneck 31.8135 16.8242 2.10174
head 10.5846 7.72418 3.05978
rclavicle 6.24184e-014 3.81667e-014
rhumerus -14.2234 35.4827 -83.7281
rradius 127.064
rwrist -9.23193
rhand -45.0707 0.322408
rfingers 7.12502
rthumb -17.8517 -28.8782
lclavicle 6.24184e-014 3.81667e-014
lhumerus 0.656764 -27.032 97.0377
lradius 37.6414
lwrist -3.97807
lhand -31.0626 14.1549
lfingers 7.12502
lthumb -4.34355 44.0904
rfemur -26.2051 16.0651 13.715
rtibia 30.7271
rfoot -13.7285 -15.9393
rtoes -5.71779
lfemur -11.1367 -4.01138 -14.7966
ltibia 28.2762
lfoot -14.454 6.27563
ltoes -12.8367
3534
root -4.33273 18.7568 0.487915 -343.394 72.2743 366.649
lowerback 8.88123 -3.09081 -2.12182
upperback 4.51042 -4.14438 -3.83089
thorax -0.426136 -1.99267 -2.38967
lowerneck -5.21384 10.8678 -3.74741
upperneck 31.8813 16.6762 2.12637
head 10.6231 7.65546 3.07037
rclavicle -3.06128e-014 -2.54444e-014
rhumerus -14.7635 35.1368 -84.3989
rradius 126.467
rwrist -9.568
rhand -45.1775 -0.175601
rfingers 7.12502
rthumb -17.9545 -29.3668
lclavicle -3.06128e-014 -2.54444e-014
lhumerus 0.46575 -27.0036 96.7353
lradius 37.2279
lwrist -3.89844
lhand -31.0671 14.4001
lfingers 7.12502
lthumb -4.3479 44.3354
rfemur -26.2056 15.9618 13.7784
rtibia 30.8232
rfoot -13.9202 -16.2775
rtoes -5.71176
lfemur -11.669 -4.18104 -14.6599
ltibia 28.9896
lfoot -14.2091 6.03563
ltoes -12.9291
3535
root -4.31394 18.7578 0.515845 -342.958 72.7435 366.964
lowerback 8.85456 -3.066 -1.854
upperback 4.52221 -4.09025 -3.75421
thorax -0.41165 -1.96344 -2.46617
lowerneck -5.29566 10.727 -3.8218
upperneck 31.9494 16.4798 2.21099
head 10.654 7.5674 3.10401
rclavicle 6.75868e-014 -3.18055e-015
rhumerus -15.3144 34.6618 -84.9797
rradius 125.825
rwrist -10.0459
rhand -45.6219 -0.1952
rfingers 7.12502
rthumb -18.382 -29.3467
lclavicle 6.75868e-014 -3.18055e-015
lhumerus 0.231169 -27.2072 96.3086
lradius 36.8791
lwrist -3.80353
lhand -31.0305 13.417
lfingers 7.12502
lthumb -4.31259 43.3531
rfemur -26.2072 15.7919 13.8298
rtibia 30.9128
rfoot -14.134 -16.5044
rtoes -5.9871
lfemur -12.3417 -4.31205 -14.5348
ltibia 29.8212
lfoot -13.8343 5.80667
ltoes -13.6196
3536
root -4.29547 18.7585 0.541237 -342.273 73.1678 367.623
lowerback 8.91798 -3.03743 -1.70557
upperback 4.56128 -4.04011 -3.66855
thorax -0.408882 -1.93678 -2.4629
lowerneck -5.36592 10.6534 -3.86744
upperneck 32.0125 16.4023 2.20298
head 10.691 7.52558 3.11182
rclavicle -4.6118e-014 -3.33958e-014
rhumerus -15.8305 34.1138 -85.4396
rradius 125.219
rwrist -10.6401
rhand -45.9573 0.232118
rfingers 7.12502
rthumb -18.7046 -28.8886
lclavicle -4.6118e-014 -3.33958e-014
lhumerus 0.103653 -27.0241 96.0535
lradius 36.2831
lwrist -4.44572
lhand -30.6257 12.0589
lfingers 7.12502
lthumb -3.92166 42.0025
rfemur -26.1078 15.699 13.7701
rtibia 30.9755
rfoot -14.3845 -16.6472
rtoes -5.69176
lfemur -12.9747 -4.44011 -14.5548
ltibia 30.7903
lfoot -13.547 5.65394
ltoes -14.7312
3537
root -4.28072 18.7555 0.565029 -341.81 73.5205 368.043
lowerback 9.01803 -2.99729 -1.5639
upperback 4.58307 -3.97748 -3.55787
thorax -0.441377 -1.9045 -2.42877
lowerneck -5.40374 10.6164 -3.94406
upperneck 32.0158 16.3619 2.22278
head 10.6917 7.50316 3.12965
rclavicle -1.07344e-014 -6.36111e-015
rhumerus -16.3094 33.5281 -85.8371
rradius 124.558
rwrist -11.3664
rhand -46.262 0.49802
rfingers 7.12502
rthumb -18.9976 -28.5942
lclavicle -1.07344e-014 -6.36111e-015
lhumerus -0.0524865 -26.575 95.9036
lradius 35.5477
lwrist -5.44704
lhand -30.5592 11.0162
lfingers 7.12502
lthumb -3.85744 40.961
rfemur -26.0501 15.6896 13.7603
rtibia 31.042
rfoot -14.6254 -16.7984
rtoes -5.2262
lfemur -13.6702 -4.57402 -14.5074
ltibia 31.8644
lfoot -13.2182 5.62976
ltoes -15.7031
3538
root -4.26614 18.7533 0.595246 -341.625 73.8515 368.212
lowerback 9.14237 -2.89291 -1.40676
upperback 4.60169 -3.82903 -3.43821
thorax -0.48802 -1.82928 -2.40113
lowerneck -5.31728 10.5433 -3.96526
upperneck 31.8725 16.2659 2.14782
head 10.6295 7.45966 3.08469
rclavicle -1.59028e-015 2.38542e-014
rhumerus -16.8761 32.7794 -86.3268
rradius 123.773
rwrist -12.0711
rhand -46.3702 0.328229
rfingers 7.12502
rthumb -19.1018 -28.7538
lclavicle -1.59028e-015 2.38542e-014
lhumerus -0.392547 -26.3205 95.7522
lradius 34.8829
lwrist -6.13602
lhand -30.8356 10.0763
lfingers 7.12502
lthumb -4.12435 40.0161
rfemur -25.9498 15.6659 13.8838
rtibia 31.117
rfoot -14.8113 -16.9893
rtoes -5.10443
lfemur -14.3399 -4.67661 -14.3533
ltibia 33.0228
lfoot -12.8305 5.4608
ltoes -15.7063
3539
root -4.25026 18.7516 0.622005 -341.464 74.2606 368.311
lowerback 9.20931 -2.82243 -1.16361
upperback 4.65161 -3.71488 -3.29211
thorax -0.475519 -1.77024 -2.39508
lowerneck -5.33063 10.4646 -3.97221
upperneck 31.7014 16.1748 2.01495
head 10.583 7.41062 3.02533
rclavicle 1.19271e-014 -3.26007e-014
rhumerus -17.332 32.1072 -86.7042
rradius 122.941
rwrist -12.9549
rhand -46.2556 0.149092
rfingers 7.12502
rthumb -18.9915 -28.9437
lclavicle 1.19271e-014 -3.26007e-014
lhumerus -0.704372 -26.228 95.4987
lradius 34.3016
lwrist -6.33165
lhand -30.2046 10.1309
lfingers 7.12502
lthumb -3.51508 40.0816
rfemur -25.8714 15.5366 14.0424
rtibia 31.17
rfoot -14.9808 -17.1524
rtoes -4.8925
lfemur -15.1476 -4.86186 -14.1385
ltibia 34.298
lfoot -12.5535 5.11229
ltoes -14.2036
3540
root -4.23411 18.7475 0.642563 -341.249 74.7519 368.445
lowerback 9.27703 -2.82187 -0.880713
upperback 4.70158 -3.68996 -3.09445
thorax -0.465381 -1.75586 -2.34939
lowerneck -5.47242 10.3944 -4.13739
upperneck 31.6542 16.1257 1.93831
head 10.5877 7.36257 3.02851
rclavicle -4.49253e-014 4.21423e-014
rhumerus -17.6874 31.7156 -86.9326
rradius 122.018
rwrist -13.8726
rhand -46.2576 0.348242
rfingers 7.12502
rthumb -18.9934 -28.7444
lclavicle -4.49253e-014 4.21423e-014
lhumerus -1.01829 -25.8692 95.3268
lradius 33.7426
lwrist -6.54564
lhand -28.8045 11.5333
lfingers 7.12502
lthumb -2.16291 41.5021
rfemur -25.7915 15.5445 14.1562
rtibia 31.2037
rfoot -15.2361 -17.4816
rtoes -4.80429
lfemur -16.1196 -5.11611 -13.9473
ltibia 35.6472
lfoot -12.1409 4.97348
ltoes -13.4557
3541
root -4.21839 18.7455 0.660957 -340.993 75.2631 368.624
lowerback 9.34334 -2.83137 -0.601676
upperback 4.75877 -3.67744 -2.86574
thorax -0.445012 -1.7478 -2.26869
lowerneck -5.57686 10.3496 -4.33747
upperneck 31.56 16.1287 1.80126
head 10.5699 7.33025 3.01538
rclavicle -6.40087e-014 -7.95139e-015
rhumerus -18.0099 31.613 -87.0363
rradius 121.022
rwrist -14.6343
rhand -46.2992 0.861109
rfingers 7.12502
rthumb -19.0335 -28.2276
lclavicle -6.40087e-014 -7.95139e-015
lhumerus -1.22585 -25.1885 95.3008
lradius 33.0294
lwrist -7.01586
lhand -27.9969 12.7205
lfingers 7.12502
lthumb -1.3829 42.6957
rfemur -25.7072 15.6662 14.2353
rtibia 31.2255
rfoot -15.4806 -17.9309
rtoes -5.03669
lfemur -17.1303 -5.40828 -13.805
ltibia 37.0555
lfoot -11.6281 5.07354
ltoes -13.9726
3542
root -4.20279 18.7439 0.679605 -340.427 75.7042 369.197
lowerback 9.47799 -2.79986 -0.42943
upperback 4.83191 -3.61765 -2.69604
thorax -0.440655 -1.71574 -2.19141
lowerneck -5.66176 10.2729 -4.44253
upperneck 31.4514 16.0733 1.65064
head 10.5541 7.28108 2.97697
rclavicle -4.53229e-014 9.54166e-015
rhumerus -18.3956 31.6424 -87.1427
rradius 120.087
rwrist -15.1535
rhand -46.5225 0.788599
rfingers 7.12502
rthumb -19.2482 -28.2789
lclavicle -4.53229e-014 9.54166e-015
lhumerus -1.41225 -24.4002 95.2557
lradius 32.253
lwrist -7.71359
lhand -28.0849 13.1715
lfingers 7.12502
lthumb -1.46792 43.1462
rfemur -25.5413 15.7345 14.2261
rtibia 31.223
rfoot -15.7014 -18.3209
rtoes -5.15403
lfemur -18.0831 -5.74769 -13.7809
ltibia 38.5338
lfoot -11.0783 5.21163
ltoes -14.1098
3543
root -4.18633 18.7432 0.703188 -340.079 76.071 369.547
lowerback 9.56192 -2.75655 -0.335893
upperback 4.91321 -3.54705 -2.4921
thorax -0.392731 -1.67982 -2.03868
lowerneck -5.75885 10.1818 -4.62132
upperneck 31.3806 15.9913 1.57506
head 10.5414 7.21897 2.97479
rclavicle -5.56597e-015 -2.38542e-015
rhumerus -18.7422 31.8309 -87.2967
rradius 119.215
rwrist -15.5513
rhand -46.9682 0.427252
rfingers 7.12502
rthumb -19.6767 -28.5969
lclavicle -5.56597e-015 -2.38542e-015
lhumerus -1.63436 -23.5101 95.108
lradius 31.5727
lwrist -8.43633
lhand -28.5313 12.795
lfingers 7.12502
lthumb -1.89908 42.7663
rfemur -25.3773 15.917 14.2611
rtibia 31.2023
rfoot -16.0033 -18.6546
rtoes -4.47418
lfemur -19.0023 -6.16283 -13.6632
ltibia 40.0361
lfoot -10.5966 5.29298
ltoes -13.0604
3544
root -4.1678 18.7444 0.721761 -339.938 76.3826 369.737
lowerback 9.60513 -2.69732 -0.1755
upperback 5.04871 -3.44655 -2.33921
thorax -0.2726 -1.62597 -1.98258
lowerneck -5.8269 10.0734 -4.63088
upperneck 31.2683 15.8594 1.46402
head 10.5265 7.14916 2.92743
rclavicle -3.26007e-014 2.8625e-014
rhumerus -18.9413 32.0081 -87.4013
rradius 118.343
rwrist -15.9648
rhand -47.3299 -0.0771321
rfingers 7.12502
rthumb -20.0244 -29.0653
lclavicle -3.26007e-014 2.8625e-014
lhumerus -1.87085 -22.7373 94.8326
lradius 31.0056
lwrist -9.10343
lhand -29.1326 12.1503
lfingers 7.12502
lthumb -2.47973 42.1157
rfemur -25.1542 16.1376 14.3178
rtibia 31.1983
rfoot -16.4676 -18.8657
rtoes -3.4242
lfemur -19.7964 -6.59132 -13.5503
ltibia 41.5139
lfoot -10.1124 5.42653
ltoes -11.2188
